<?xml version="1.0" encoding="utf-8"?>
<!-- Generator: Adobe Illustrator 22.1.0, SVG Export Plug-In . SVG Version: 6.00 Build 0)  -->
<svg version="1.1" id="Layer_1" xmlns="http://www.w3.org/2000/svg" xmlns:xlink="http://www.w3.org/1999/xlink" x="0px" y="0px"
	 viewBox="0 0 349 95" style="enable-background:new 0 0 349 95;" xml:space="preserve">
<style type="text/css">
	.st0{fill:#10284B;}
	.st1{fill:#FFCF01;}
	.st2{fill:#002E5E;}
	.st3{fill:#FFFFFF;}
	.st4{fill:#0E2E54;}
	.st5{font-family:'UniversLTStd-Bold';}
	.st6{font-size:11.5px;}
	.st7{font-family:'Univers-Light-Normal';}
	.st8{font-size:19px;}
	.st9{font-size:18px;}
	.st10{fill:#707477;stroke:#707477;stroke-width:0.5;stroke-miterlimit:10;}
	.st11{font-size:15px;}
</style>
<g>
	<polygon class="st0" points="92.5,91.5 0,91.5 0,0 92.5,0 92.5,91.5 	"/>
	<polygon class="st1" points="45.9,49 36.6,36.2 36.6,45.5 40.3,45.5 40.3,54.7 23.2,54.7 23.2,45.5 26.7,45.5 26.7,31.3 23.2,31.3 
		23.2,22.1 36.6,22.1 45.9,35 55.2,22.1 68.7,22.1 68.7,31.3 65.2,31.3 65.2,45.5 68.7,45.5 68.7,54.7 51.5,54.7 51.5,45.5 
		55.2,45.5 55.2,36.2 45.9,49 45.9,49 	"/>
	<path class="st2" d="M20.2,65.8"/>
	<path class="st3" d="M27.8,61.4L27.8,61.4l-1.2,5.1h2.4L27.8,61.4L27.8,61.4z M23,71l3.3-11.9h3.3L32.9,71h-2.6l-0.7-2.6h-3.4
		L25.5,71H23L23,71z"/>
	<polygon class="st3" points="34,71 34,59.1 36.5,59.1 36.5,71 34,71 	"/>
	<polygon class="st3" points="42.3,71 42.3,59.1 44.8,59.1 44.8,69 48.5,69 48.5,71 42.3,71 	"/>
	<path class="st3" d="M54,61.4L54,61.4l-1.2,5.1h2.4L54,61.4L54,61.4z M49.2,71l3.3-11.9h3.3L59,71h-2.6l-0.7-2.6h-3.4L51.7,71H49.2
		L49.2,71z"/>
	<path class="st3" d="M62.4,69.1h1.4c0.5,0,1.7,0,1.7-1.7c0-1.1-0.4-1.7-1.6-1.7h-1.5V69.1L62.4,69.1z M62.4,63.9H64
		c0.5,0,1.3-0.4,1.3-1.5c0-0.9-0.6-1.5-1.4-1.5h-1.5V63.9L62.4,63.9z M59.9,71V59.1h4.4c1.9,0,3.5,0.5,3.5,3.1c0,1.4-0.7,2.4-2,2.6
		v0c1.8,0.2,2.2,1.4,2.2,3c0,3-2.6,3.2-3.7,3.2H59.9L59.9,71z"/>
</g>
<text transform="matrix(1 0 0 1 103.1665 91.1851)" class="st4 st5 st6">University of Michigan </text>
<text transform="matrix(1 0 0 1 103.1665 51.5)"><tspan x="0" y="0" class="st4 st7 st8">ARTIFICIAL INTELLIGENCE </tspan><tspan x="0" y="22.8" class="st4 st7 st8">LABORATORY</tspan></text>
<text transform="matrix(1 0 0 1 105.1665 36.5)" class="st4 st5 st9"> </text>
<line class="st10" x1="103.2" y1="21" x2="343.5" y2="21"/>
<text transform="matrix(1 0 0 1 103.1665 14.5)" class="st4 st5 st11">Michigan AI Blog </text>
</svg>
