<?xml version="1.0" encoding="utf-8"?>
<!-- Generator: Adobe Illustrator 22.1.0, SVG Export Plug-In . SVG Version: 6.00 Build 0)  -->
<svg version="1.1" id="Layer_1" xmlns="http://www.w3.org/2000/svg" xmlns:xlink="http://www.w3.org/1999/xlink" x="0px" y="0px"
	 viewBox="0 0 337 96" style="enable-background:new 0 0 337 96;" xml:space="preserve">
<style type="text/css">
	.st0{fill:#10284B;}
	.st1{fill:#FFCF01;}
	.st2{fill:#002E5E;}
	.st3{fill:#FFFFFF;}
	.st4{fill:#0E2E54;}
	.st5{font-family:'UniversLTStd-Bold';}
	.st6{font-size:11.5px;}
	.st7{font-family:'Univers-Light-Normal';}
	.st8{font-size:19px;}
	.st9{font-size:18px;}
	.st10{fill:#707477;stroke:#707477;stroke-width:0.5;stroke-miterlimit:10;}
	.st11{font-size:15px;}
</style>
<g>
	<polygon class="st0" points="92.5,92.5 0,92.5 0,1 92.5,1 92.5,92.5 	"/>
	<polygon class="st1" points="45.9,50 36.6,37.2 36.6,46.5 40.3,46.5 40.3,55.7 23.2,55.7 23.2,46.5 26.7,46.5 26.7,32.3 23.2,32.3 
		23.2,23.1 36.6,23.1 45.9,36 55.2,23.1 68.7,23.1 68.7,32.3 65.2,32.3 65.2,46.5 68.7,46.5 68.7,55.7 51.5,55.7 51.5,46.5 
		55.2,46.5 55.2,37.2 45.9,50 45.9,50 	"/>
	<path class="st2" d="M20.2,66.8"/>
	<path class="st3" d="M27.8,62.4L27.8,62.4l-1.2,5.1h2.4L27.8,62.4L27.8,62.4z M23,72l3.3-11.9h3.3L32.9,72h-2.6l-0.7-2.6h-3.4
		L25.5,72H23L23,72z"/>
	<polygon class="st3" points="34,72 34,60.1 36.5,60.1 36.5,72 34,72 	"/>
	<polygon class="st3" points="42.3,72 42.3,60.1 44.8,60.1 44.8,70 48.5,70 48.5,72 42.3,72 	"/>
	<path class="st3" d="M54,62.4L54,62.4l-1.2,5.1h2.4L54,62.4L54,62.4z M49.2,72l3.3-11.9h3.3L59,72h-2.6l-0.7-2.6h-3.4L51.7,72H49.2
		L49.2,72z"/>
	<path class="st3" d="M62.4,70.1h1.4c0.5,0,1.7,0,1.7-1.7c0-1.1-0.4-1.7-1.6-1.7h-1.5V70.1L62.4,70.1z M62.4,64.9H64
		c0.5,0,1.3-0.4,1.3-1.5c0-0.9-0.6-1.5-1.4-1.5h-1.5V64.9L62.4,64.9z M59.9,72V60.1h4.4c1.9,0,3.5,0.5,3.5,3.1c0,1.4-0.7,2.4-2,2.6
		v0c1.8,0.2,2.2,1.4,2.2,3c0,3-2.6,3.2-3.7,3.2H59.9L59.9,72z"/>
</g>
<text transform="matrix(1 0 0 1 103.1665 92.1851)" class="st4 st5 st6">University of Michigan </text>
<text transform="matrix(1 0 0 1 103.1665 52.5)"><tspan x="0" y="0" class="st4 st7 st8">ARTIFICIAL INTELLIGENCE </tspan><tspan x="0" y="22.8" class="st4 st7 st8">LABORATORY</tspan></text>
<text transform="matrix(1 0 0 1 105.1665 37.5)" class="st4 st5 st9"> </text>
<line class="st10" x1="103.2" y1="22" x2="333.5" y2="22"/>
<text transform="matrix(1 0 0 1 103.1665 15.5)" class="st4 st5 st11">Michigan AI Blog </text>
</svg>
